# xmcd CD database file
#
# Track frame offsets:
#	150
#	20343
#	38028
#	64546
#	85460
#	98919
#	115032
#	136560
#	161540
#	183612
#	198794
#
# Disc length: 2940 seconds
#
# Revision: 3
# Processed by: cddbd v1.5.2PL0 Copyright (c) Steve Scherf et al.
# Submitted via: CDex 1.70beta2
#
DISCID=820b7a0b
DTITLE=David Postigo Rodriguez - Unknown CD for MusicBrainz and FreeDB
DYEAR=2012
DGENRE=New Age
TTITLE0=David Postigo Rodriguez - Indochina
TTITLE1=David Postigo Rodriguez - Shahrain
TTITLE2=David Postigo Rodriguez - El Pianista de Copuvray
TTITLE3=David Postigo Rodriguez - El Templo de Inanna
TTITLE4=David Postigo Rodriguez - Bayt al-Yauza
TTITLE5=David Postigo Rodriguez - Para￭so Intimo
TTITLE6=David Postigo Rodriguez - Zaman
TTITLE7=David Postigo Rodriguez - Tu Aliento
TTITLE8=David Postigo Rodriguez - Min Dajili
TTITLE9=David Postigo Rodriguez - Mirando al Espejo
TTITLE10=David Postigo Rodriguez - Mudanza Interior
EXTD=YEAR: 2012
EXTT0=
EXTT1=
EXTT2=
EXTT3=
EXTT4=
EXTT5=
EXTT6=
EXTT7=
EXTT8=
EXTT9=
EXTT10=
PLAYORDER=
